<svg xmlns="http://www.w3.org/2000/svg" viewBox="0 0 174.15 177.96"><defs><style>.cls-1{fill:#606161;}</style></defs><title>Asset 7</title><g id="Layer_2" data-name="Layer 2"><g id="Layer_1-2" data-name="Layer 1"><path class="cls-1" d="M166.15,78.54a8,8,0,0,0-7.92,6.85H136.62A49.59,49.59,0,0,0,122.79,51L136,37.79a5.52,5.52,0,1,0-.55-.55L122.26,50.41A49.31,49.31,0,0,0,89.43,35.76V15.92a8,8,0,1,0-2.26,0V35.7h-.1A49.28,49.28,0,0,0,53.35,49L33.54,29.19a5.52,5.52,0,1,0-.55.55l19.8,19.8A49.61,49.61,0,0,0,37.53,85.39H15.92a8,8,0,1,0,0,2.26H37.59A49.59,49.59,0,0,0,52.49,121L37.83,135.61a5.52,5.52,0,1,0,.55.55L53,121.49a49.28,49.28,0,0,0,34,13.59h0v27a8,8,0,1,0,2.26,0V135a49.32,49.32,0,0,0,33.59-15.36L138,134.78a5.52,5.52,0,1,0,.55-.55l-15.13-15.13a49.57,49.57,0,0,0,13.1-31.45h21.67a8,8,0,1,0,7.92-9.11ZM58,51.1c-.43.4-.86.81-1.27,1.23l-.06-.06C57.07,51.88,57.51,51.49,58,51.1Zm29.11,60.52c-.75,0-1.48-.1-2.21-.2q0,.71,0,1.43c.73.1,1.47.17,2.22.21v14.81c-.74,0-1.48-.1-2.21-.18,0,.4,0,.8,0,1.21.73.08,1.47.14,2.21.17v.86c-.74,0-1.48-.1-2.21-.17,0,1.13-.47,1.54-1.58,1.41a45.34,45.34,0,0,1-24-10.23,4.61,4.61,0,0,1-.49-.62c-.83-.68-1.64-1.37-2.42-2.11l.53-.53c.74.75,1.52,1.46,2.31,2.15.2-.23.39-.44.58-.64l.28-.28c-.78-.68-1.55-1.39-2.28-2.12l.67-.67c.73.74,1.49,1.45,2.27,2.14l.84-.84c-.78-.69-1.54-1.39-2.27-2.14l10.52-10.52a24.8,24.8,0,0,0,2.2,2.19l.6-.6a25.94,25.94,0,0,1-2.35-2l1.26-1.26.26.25.15.14.63.56.22.19.61.49.28.22.21.16,1.77-1.79a1.84,1.84,0,0,1,2.66-.34,31.16,31.16,0,0,0,5.15,2.14c1,.33,1.45.72,1.44,1.82,0,.91,0,1.81,0,2.72l.46.06.48.06.79.06.4,0h.08ZM88.17,98.4a12.72,12.72,0,1,1,12.9-12.65A12.7,12.7,0,0,1,88.17,98.4Zm29.46,21.52a3,3,0,0,1,.31.61,36.75,36.75,0,0,1-11.82,7.24,124.45,124.45,0,0,1-12.29,3.32c-1.47.36-1.88.11-2-1.17-.79,0-1.58.07-2.38.07h-.15v-.86h0c.85,0,1.68,0,2.52-.08q0-.6,0-1.2c-.83,0-1.67.08-2.52.08h0V113.06a24.7,24.7,0,0,0,2.51-.25q0-.71,0-1.43-1.23.17-2.5.23v-1.79a24,24,0,0,0,2.5-.25c0-.81,0-1.61,0-2.42,0-1.29.46-1.75,1.65-2.13,1.82-.57,3.52-1.52,5.3-2.2.52-.2,1.43-.29,1.73,0l2.16,2.14a24.19,24.19,0,0,0,2.94-2.63l1.27,1.27a25.87,25.87,0,0,1-2.92,2.64l.6.6a24.77,24.77,0,0,0,2.72-2.84l11.7,11.7q-1.4,1.38-2.92,2.63ZM131.7,85.16c0,.08,0,.15,0,.23H114c0,.13,0,.27,0,.4,0,.63,0,1.24-.07,1.86h17.71c0,.51-.07,1-.12,1.51h.74c1.21,0,1.74.39,1.58,1.63a45.52,45.52,0,0,1-10.14,23.91,6.45,6.45,0,0,1-.79.64l-1.84-1.86c-.5.57-1,1.13-1.54,1.67L107.75,103.4c.47-.62.9-1.26,1.32-1.91l-.23-.23c-.46.61-.94,1.21-1.45,1.78l-1.26-1.26c.51-.57,1-1.17,1.43-1.79l-1.63-1.62a1.76,1.76,0,0,1-.38-2.52,34.7,34.7,0,0,0,2.2-5.29,1.68,1.68,0,0,1,1.86-1.4h2.33c.07-.5.13-1,.17-1.52s.08-1.23.08-1.86c0-.14,0-.27,0-.4q0-.57,0-1.14c0-.27,0-.54-.07-.82,0-.09,0-.18,0-.27,0-.32-.08-.64-.13-1h-2.07c-1.28,0-1.76-.44-2.14-1.64-.59-1.86-1.55-3.61-2.26-5.44a1.89,1.89,0,0,1,0-1.6l2-2-.09-.14,0,0c-.33-.43-.67-.85-1-1.26l-.18-.21a24.16,24.16,0,0,0-2.4-2.37l0,0-.76-.62,0,0-.34-.26-1.49,1.5a1.83,1.83,0,0,1-2.65.35,29.84,29.84,0,0,0-5.15-2.14,1.75,1.75,0,0,1-1.47-2c0-.77,0-1.53,0-2.3l-.17,0-.48-.06-.64-.08-.5,0c-.61,0-1.22-.08-1.84-.08s-1.3,0-1.93.08l-.22,0-.85.09-.26,0h-.07c0,.76,0,1.51,0,2.27a1.83,1.83,0,0,1-1.55,2.06c-1.86.6-3.61,1.55-5.45,2.24-.51.19-1.41.25-1.72,0L74,66.37a24.12,24.12,0,0,0-2.29,1.91l-.11.1-.06.06a24.16,24.16,0,0,0-2.34,2.61l-.05.07-.12.16,1.58,1.57a1.92,1.92,0,0,1,.42,2.77,34.19,34.19,0,0,0-2.18,5.31c-.3.85-.67,1.27-1.64,1.27H64.48a24.25,24.25,0,0,0-.27,3.61c0,.33,0,.66,0,1,0,.81.11,1.6.22,2.38h2.48A1.82,1.82,0,0,1,69,90.72c.59,1.86,1.55,3.61,2.25,5.45a2,2,0,0,1-.08,1.72l-2.22,2.23a24.19,24.19,0,0,0,2,2.39l-1.27,1.27a26.05,26.05,0,0,1-2-2.38l-.23.23a25.07,25.07,0,0,0,1.85,2.55L58.73,114.72c-.71-.75-1.39-1.54-2-2.34l-.85.84c.66.8,1.34,1.59,2.05,2.34l-.67.67c-.72-.75-1.4-1.53-2.07-2.32l-.89.89c.67.79,1.36,1.57,2.08,2.32l-.56.56a45,45,0,0,1-13.55-30h1.21c0,.54.08,1.08.13,1.62a4.94,4.94,0,0,1,1.05-.08h.2c0-.51-.1-1-.13-1.53h1.17c0,.51.07,1,.12,1.53h1.19c0-.51-.09-1-.12-1.53H62.48c0-.61-.07-1.23-.07-1.86,0-.14,0-.27,0-.4H47c0-.08,0-.15,0-.23,0-1,0-2,.11-3H45.9c-.07,1-.11,2-.11,3,0,.08,0,.15,0,.23H44.61c0-.16,0-.31,0-.47,0-.92,0-1.83.09-2.73h-.38a2.3,2.3,0,0,1-.87-.14c-.06.95-.1,1.9-.1,2.87,0,.16,0,.31,0,.47h-1.2A45,45,0,0,1,56.07,52.81l.08.08a46.63,46.63,0,0,0-4.35,5.3c.45-.6.92-1.19,1.4-1.77a2.62,2.62,0,0,1,.56-.33l.7.64c.82-1,1.67-2,2.57-3l.91.91q-1.34,1.41-2.56,2.94l.84.85q1.21-1.53,2.56-2.95L70.37,67.11l.57-.52L59.33,55c.55-.56,1.12-1.1,1.7-1.62l-.84-.85c-.58.53-1.15,1.07-1.71,1.63l-.91-.91c.55-.56,1.12-1.1,1.71-1.63L59,51.27a2.78,2.78,0,0,1-.19-.38c.39-.36.74-.73,1.14-1a45.62,45.62,0,0,1,22.84-9.61c1-.13,1.5-.12,1.79.18.84,0,1.69-.08,2.54-.08h.1v.9c-.79,0-1.56.1-2.34.18,0,.19,0,.4,0,.64s0,.37,0,.56c.77-.08,1.54-.15,2.32-.19V60l1,0q.62,0,1.23,0V42.39c.81,0,1.62,0,2.42.08q0-.16,0-.33c0-.34,0-.63,0-.87-.81,0-1.63-.08-2.45-.08V40.4c.87,0,1.74.12,2.6.22.24-.52.79-.54,2-.38a45.66,45.66,0,0,1,20.58,8c.93.66,1.83,1.37,2.73,2.08A6.26,6.26,0,0,1,118,51c-.44.48-.77.87-1.13,1.23l-.22.22c.64.55,1.27,1.1,1.88,1.68L105.78,66.88l.56.53L119.06,54.7c.88.87,1.71,1.79,2.51,2.73l1.57-1.56c1.16,1.56,2.25,2.94,3.24,4.38a45.71,45.71,0,0,1,7.4,19.8c.25,1.85,0,2.12-1.8,2.13h-.4C131.65,83.16,131.7,84.16,131.7,85.16Z"/></g></g></svg>